<?xml version="1.0" encoding="utf-8"?>
<!-- Generator: Adobe Illustrator 26.0.1, SVG Export Plug-In . SVG Version: 6.00 Build 0)  -->
<svg version="1.1" id="Capa_1" xmlns="http://www.w3.org/2000/svg" xmlns:xlink="http://www.w3.org/1999/xlink" x="0px" y="0px"
	 viewBox="0 0 64 64" style="enable-background:new 0 0 64 64;" xml:space="preserve">
<style type="text/css">
	.st0{fill-rule:evenodd;clip-rule:evenodd;}
</style>
<g id="SVGRepo_bgCarrier">
</g>
<g id="SVGRepo_tracerCarrier">
</g>
<g id="SVGRepo_iconCarrier">
	<path class="st0" d="M46.7,42.5c3.6-4.5,5.7-10.2,5.7-16.3C52.4,11.7,40.7,0,26.2,0C11.7,0,0,11.7,0,26.2
		c0,14.5,11.7,26.2,26.2,26.2c6.2,0,11.9-2.1,16.3-5.7L59,63.1c1.1,1.1,3,1.1,4.1,0c1.1-1.1,1.1-3,0-4.1L46.7,42.5z M26.2,46.6
		c-11.3,0-20.4-9.1-20.4-20.4S14.9,5.8,26.2,5.8s20.4,9.1,20.4,20.4S37.5,46.6,26.2,46.6z"/>
</g>
</svg>
